<?xml version="1.0" encoding="utf-8"?>
<!-- Generator: Adobe Illustrator 22.0.1, SVG Export Plug-In . SVG Version: 6.00 Build 0)  -->
<svg version="1.1" id="Layer_1" xmlns="http://www.w3.org/2000/svg" xmlns:xlink="http://www.w3.org/1999/xlink" x="0px" y="0px"
	 viewBox="0 0 1366 768" style="enable-background:new 0 0 1366 768;" xml:space="preserve">
<style type="text/css">
	.st0{fill:#FDFDFD;}
	.st1{fill:#242021;}
	.st2{fill:#163E69;}
</style>
<g>
	<g>
		<path class="st0" d="M683.9,618.6c-201.5,0-403,0-604.4,0.1c-2.5,0-2.9-0.6-2.9-2.9c0.1-154.1,0.1-308.2,0-462.3
			c0-2.4,0.4-2.9,2.9-2.9c402.9,0.1,805.7,0.1,1208.6,0c2.6,0,3,0.6,3,3.1c-0.1,154.1-0.1,308.2,0,462.3c0,2.2-0.4,2.8-2.7,2.8
			C1086.8,618.6,885.4,618.6,683.9,618.6z M378.8,371.9c0,23.8,0,47.6,0,71.4c0,1.6,0,3,1.5,4.3c5.7,4.9,11.3,9.8,16.9,14.9
			c1.1,1,2.1,1.3,3.4,1.3c23.9,0,47.8-0.1,71.7,0c2.3,0,2.8-0.7,2.7-2.9c-0.1-16.1,0-32.2-0.1-48.3c0-1.9,0.4-2.5,2.4-2.5
			c21.9,0.1,43.8,0,65.7,0c2,0,2.7,0.5,2.7,2.6c-0.1,10.3,0,20.6-0.1,30.9c0,1.9,0.6,3.1,2,4.3c5.2,4.5,10.4,9.1,15.4,13.8
			c1.7,1.5,3.4,2.1,5.6,2.1c20.9-0.1,41.8,0,62.7,0c2.7,0,5.4-0.1,8.1,0c1.6,0.1,2-0.5,2-2.1c-0.1-2.9,0-5.9,0-9.7
			c4.3,3.8,8.1,7,11.7,10.4c1.1,1,2.3,1.4,3.8,1.4c23.7,0,47.4-0.1,71.1,0c2.4,0,3.2-0.5,3.2-3.1c-0.1-16,0-32-0.1-48
			c0-1.8,0.2-2.6,2.4-2.6c21.9,0.1,43.8,0.1,65.7,0c2.1,0,2.7,0.6,2.7,2.7c-0.1,10.3,0,20.6-0.1,30.9c0,1.6,0.3,2.8,1.6,3.9
			c5.5,4.8,11,9.6,16.4,14.5c1.3,1.1,2.5,1.7,4.3,1.7c7.3-0.1,14.6-0.1,21.9-0.1c16.3,0,32.6,0,48.9,0.1c2.3,0,3-0.5,2.8-2.8
			c-0.2-2.7-0.1-5.5-0.1-8.9c4.1,3.6,7.7,6.8,11.3,10.1c1.3,1.2,2.5,1.7,4.3,1.7c23.8,0,47.6-0.1,71.4,0c2.1,0,2.7-0.5,2.7-2.6
			c-0.1-9.1-0.1-18.2-0.1-27.3c0-41.4,0-82.8,0-124.2c0-17.3,11.7-29.5,28.9-30.3c5.9-0.3,8.3,1.6,9,7.5c0.3,2.3,0.2,4.6,0.2,6.9
			c0,49.9,0,99.8,0,149.7c0,2,0.6,3.3,2.1,4.6c5.5,4.7,10.8,9.5,16.2,14.3c1,0.9,2,1.4,3.5,1.4c24.1,0,48.2,0,72.3,0
			c1.8,0,2.3-0.4,2.3-2.3c-0.1-20.4,0-40.8,0-61.2c0-30.1-0.1-60.2,0-90.3c0-15.4,9-27.2,23.3-29.9c9.6-1.8,15-2,14.9,11.6
			c-0.1,50.7-0.1,101.4-0.1,152.1c0,1.8,0.5,2.9,1.9,4.1c5.5,4.8,11,9.6,16.4,14.5c1.1,1,2.3,1.4,3.8,1.4c23.9,0,47.8,0,71.7,0
			c2.2,0,2.6-0.6,2.6-2.7c-0.1-50.1-0.1-100.2,0-150.3c0-13.3-2-26.3-6.4-38.8c-9.5-26.5-25.9-47.8-48.3-64.5
			c-17.8-13.2-37.7-21.8-60-23.8c-27.8-2.5-52.6,5.2-74.5,22.3c-1.7,1.3-2.6,1.5-4.4,0.1c-24.1-19.2-51.6-26.2-81.8-21.5
			c-46.7,7.3-82.8,44.9-88.6,91.8c-0.6,4.5-0.8,9.1-1.2,14.3c-0.4-1.1-0.7-1.7-0.9-2.2c-13.8-36.5-37.2-65.2-70.4-85.7
			c-28.7-17.8-59.7-24-92.5-14.6c-44.1,12.7-71.9,42.4-86.2,85.4c-2.2,6.6-3.5,13.4-4.6,20.7c-0.5-0.6-0.7-0.8-0.8-1
			c-13.6-39.8-38.6-70.6-74.6-92c-30.2-18-62.5-22.9-95.9-11.2c-45.7,15.9-72.4,49.2-83.3,95.8c-1.4,6-1.9,12.2-2.6,19.1
			c-1.2-3.9-2.1-7.1-3.2-10.2c-13.6-38.1-37.8-67.8-71.6-89.7c-18.5-12-38.8-20-61-21.6c-38.1-2.7-71.5,9.2-98.6,35.8
			c-41.1,40.3-52.4,89.3-35.3,143.7c12.6,40.2,40.5,67.1,80.1,81.6c1.6,0.6,1.8,1.3,1.3,2.6c-1,2.8-3.1,4.6-5.6,5.9
			c-5.3,2.7-11.1,3.1-16.9,3.2c-2.3,0.1-3,0.6-3,3c0.1,23.8,0.1,47.6,0,71.4c0,3,1,5.1,3.2,6.9c5.1,4.2,10.1,8.5,15.1,12.8
			c1.1,1,2.2,1.2,3.5,1.2c11.1,0,22.2-1.1,33-3.7c19.2-4.6,35.8-13.4,48.3-29.1c11.9-15,17.8-32.5,20.6-51.1
			c0.4-2.5,1.3-3.7,3.7-4.6c36.5-12.9,62.7-37,78.8-72.1C374.2,384.9,376.4,378.4,378.8,371.9z M455.9,522.1
			c0.1-7.1-0.9-13.9-3.2-20.6c-4.9-14.2-15.9-23-29.6-23.8c-13.4-0.8-25.4,6-31.2,19c-7.8,17.2-7.5,34.8,0.7,51.8
			c3.8,7.8,9.9,13.8,18.4,16.1c5.2,1.4,8.3,3.7,11.4,8.3c7.3,11,18.6,13.1,31,11c2.6-0.4,2.1-1.5,1.5-3.2c-0.6-1.7-1.8-0.8-2.7-0.6
			c-12.3,2.1-22.4-2-27.7-11.3c-0.9-1.6-1.3-2.4,1.2-2.8c9.6-1.3,16.9-6.3,22.2-14.3C453.8,542.8,455.7,532.7,455.9,522.1z
			 M1187.4,506.4c4.6,0,8.7-0.1,12.8,0c2.3,0.1,2.2-1.2,2-2.7c-0.2-1.6-1.6-0.9-2.4-0.9c-8.2-0.2-16.4,0.7-24.4-1.3
			c-2.4-0.6-5-0.1-7.4,0.5c-15.6,4.2-21,23.7-9.9,36.2c1.7,1.9,1.6,2.7-0.1,4.4c-5.6,5.3-6.2,13-1.1,17.8c2,1.9,1.5,2.5-0.2,4.1
			c-4.8,4.4-8.2,9.7-6.6,16.7c1.6,7.1,6.8,10.5,13.3,12.4c7.3,2.1,14.6,2.3,21.9,0.2c7.7-2.2,14.1-6.1,17.1-14.1
			c3.3-8.6-0.7-16-9.6-18.1c-2.8-0.7-5.7-1-8.6-1c-5.7,0-11.4,0.1-17.1-0.2c-3.8-0.2-7.5-1.1-9-5.2c-1.6-4.2-0.1-7.8,2.8-11
			c1.3-1.5,2.4-1.6,4.3-0.9c8.1,3.3,15.7,2.2,22.4-3.5C1195.6,532.9,1198.4,517.4,1187.4,506.4z M935.7,520.7
			c-3.6-0.5-3.6-0.4-4.5,2.6c-2.7,8.9-6.4,17.4-12,25c-0.9,1.3-1.5,1.8-2.9,0.4c-8.4-8.2-15.7-17.2-21.7-27.4
			c-1.2-2-1.1-3.1,0.9-4.6c5.2-3.7,10.2-7.7,14-13c3-4.2,4.2-8.8,3.5-13.9c-0.9-7.6-6-12.2-13.5-12.1c-9.6,0.1-16.4,7.4-16.6,17.9
			c-0.2,7.1,1.8,13.6,4.7,19.9c0.8,1.7,0.8,2.7-0.9,3.9c-4,2.9-7.6,6.2-10.7,10c-10.4,13.1-4.2,31.9,11.9,36
			c11.2,2.8,20.5-0.9,28.4-8.6c1.3-1.3,2.1-1.3,3.4-0.2c4.3,3.6,8.9,6.7,14.1,9c1,0.5,1.9,1.1,2.5-0.7c0.5-1.3,1-2.1-0.9-2.9
			c-4.7-2-8.8-5-13-8c-1.7-1.3-2-2-0.6-3.9C928.6,541.3,932.7,531.3,935.7,520.7z M1000.1,514c-0.7-1.5-1.2-2.7-1.8-3.9
			c-1.9-4.2-5.2-6.8-9.6-8c-6.1-1.6-11.6-0.4-16.9,3c-3.2,2.1-5.9,4.8-9,7.8c-0.2-3-0.4-5.4-0.5-7.8c-0.1-1.2,0.1-2.3-1.8-2.3
			c-2.1,0.1-1.6,1.4-1.6,2.5c0,19,0,38,0,57c0,1.4-0.4,2.7,2,2.7c2.5,0,1.8-1.6,1.8-2.8c0-14.1,0-28.2,0-42.3c0-1.1-0.2-2.2,0.6-3.1
			c4-4.5,8.3-8.7,14.1-10.9c8.4-3.2,16.1,0.7,18.7,9.2c0.6,2,1,4.1,1.1,6.2c0.6,13.7,0.1,27.4,0.3,41.1c0,1.2-0.5,2.5,1.7,2.6
			c2.2,0.1,2.1-1.1,2-2.6c0-14.1,0-28.2,0-42.3c0-1.2-0.4-2.4,0.6-3.4c4.2-4.5,8.4-8.8,14.4-10.9c8.3-2.9,15.9,1,18.4,9.4
			c1,3.3,1.3,6.7,1.3,10.1c0,12.4,0,24.8,0,37.2c0,1.5-0.1,2.6,2.1,2.6c2.3,0,1.7-1.4,1.7-2.6c0-12.7,0-25.4,0-38.1
			c0-2.6-0.2-5.2-0.6-7.8c-1.8-9.8-7.5-14.9-17.1-15.1c-4.3-0.1-8,1.4-11.5,3.7C1006.5,507.5,1003.4,510.7,1000.1,514z M757.4,514
			c-5.7-12.7-16.2-16.2-27.6-9.5c-2.9,1.7-5.5,3.9-7.9,6.4c-0.5,0.5-0.8,1.4-2,0.8c-0.1-2.5-0.3-5-0.4-7.4c0-1.4-0.7-1.6-1.9-1.6
			c-1.2,0-1.5,0.5-1.5,1.6c0,2.1,0,4.2,0,6.3c0,17.2,0,34.4,0,51.6c0,1.7,0.1,2.8,2.3,2.6c2.1-0.2,1.4-1.6,1.5-2.6
			c0-14.1,0-28.2,0-42.3c0-1.3-0.1-2.5,0.9-3.6c3.7-4.1,7.7-7.8,12.8-10.1c8.9-4,17.4,0.2,19.9,9.5c0.9,3.3,1.1,6.7,1.1,10.1
			c0,12.2,0,24.4,0,36.6c0,2,0.4,2.7,2.5,2.5c2.1-0.2,1.3-1.7,1.3-2.7c0-14.1,0-28.2,0.1-42.3c0-1.2-0.2-2.4,0.8-3.4
			c3.7-4.2,7.8-8.1,13-10.4c8.9-3.9,17.4,0.3,19.8,9.7c0.8,3.2,1,6.5,1,9.8c0,12.1,0,24.2,0,36.3c0,1.4-0.6,3,2,3
			c2.7-0.1,1.8-1.8,1.8-3.1c0.1-5.6,0.1-11.2,0-16.8c-0.1-8.9,0.5-17.8-0.4-26.7c-0.9-9.1-5.6-15-13.1-16.6
			c-6-1.3-11.5,0.2-16.5,3.7C763.5,507.9,760.6,510.8,757.4,514z M459.3,509.8C459.3,509.8,459.3,509.8,459.3,509.8
			c0,4.1-0.1,8.2,0,12.3c0.1,7-0.5,14,0.8,20.9c1.9,10.4,6.7,18.8,17.5,21.8c10.9,3,21.3,2.2,29.8-6.2c6.2-6.1,8-14.3,8.1-22.6
			c0.3-18.4,0.1-36.8,0.2-55.2c0-1.2-0.3-1.7-1.6-1.8c-2.4-0.3-2.3,1.1-2.3,2.7c0,16.8,0,33.6,0,50.4c0,4.1-0.3,8.2-1.3,12.2
			c-2.3,8.6-6.9,15.2-16,17.3c-13.6,3.2-26.5-1.6-30-18.1c-0.8-3.7-1.2-7.5-1.2-11.3c0-16.8,0-33.6,0-50.4c0-1.3,0.5-2.7-1.9-2.8
			c-2.5,0-2.1,1.4-2.1,2.9C459.3,491.2,459.3,500.5,459.3,509.8z M829.1,533.9C829.1,533.9,829.1,533.9,829.1,533.9
			c6.9,0,13.8-0.1,20.7,0c1.7,0,2.5-0.3,2.5-2.3c0-4.3-0.2-8.6-1.3-12.8c-2.1-7.6-6.1-13.6-14-16.3c-10.3-3.4-21.4,0.1-27.9,9.2
			c-7.2,9.9-8.4,21.1-5.5,32.6c5.8,22.9,28.8,26.7,44.4,17c0.8-0.5,1.8-0.9,1-2.3c-0.8-1.6-1.3-1.9-3-0.8
			c-11.3,7.1-24.2,5.9-32.3-2.9c-5.1-5.6-6.9-12.4-7.4-19.8c-0.1-1.7,0.9-1.6,2.1-1.6C815.4,534,822.2,533.9,829.1,533.9z
			 M633.5,556.4c0.2,2.4,0.4,4.3,0.5,6.2c0.1,1.2-0.2,2.3,1.8,2.3c2,0,1.7-1.1,1.7-2.3c0-12.1,0-24.2,0-36.3c0-3.6-0.2-7.2-1-10.7
			c-1.5-6.3-4.6-11.4-11.2-13.2c-10.5-2.9-19.6,0.6-28.3,6.2c-1.7,1.1,0,1.9,0.3,2.7c0.5,1.2,1.2,0.7,2.1,0.1
			c5.5-3.9,11.5-6.3,18.3-6.5c6.6-0.3,11.8,2.8,14,8.6c1.4,3.5,1.8,7.1,1.9,10.9c0,1.6-0.6,2-2,2.1c-3.2,0.3-6.3,0.8-9.5,1.4
			c-8.4,1.6-16.9,3.3-23.8,9.1c-7.1,5.9-7.6,18.4-0.9,24.7c5.1,4.8,11.4,5.4,17.9,4.2C622,564.5,627.6,560.8,633.5,556.4z
			 M1247.1,556.6c0.7,2.2,0.6,4.1,0.7,6c0.1,1.2-0.1,2.3,1.8,2.3c2,0,1.6-1.2,1.6-2.4c0-12.4,0-24.8,0-37.2c0-3.4-0.2-6.8-1.1-10.1
			c-2-8.4-7.4-13.2-15.9-13.8c-8.4-0.6-15.9,2.2-22.9,6.7c-1.2,0.7-1.8,1.3-0.8,2.8c1.1,1.6,1.8,1,2.8,0.2c3.9-2.7,8.1-4.8,12.8-5.6
			c5.1-0.9,10.2-1.4,14.7,2c5.8,4.5,6.3,11,6.4,17.6c0,1.1-0.7,1.2-1.6,1.3c-2.7,0.4-5.4,0.7-8,1.1c-8.2,1.4-16.3,3-23.4,7.7
			c-5.9,3.9-8.3,9.5-7.6,16.5c0.6,6.7,4,11.4,10.5,13.5c5.7,1.8,11.2,1.3,16.7-0.8C1238.7,562.6,1242.8,559.9,1247.1,556.6z
			 M1087.9,556.4c0.2,2.5,0.3,4.4,0.4,6.3c0.1,1.2,0,2.3,1.9,2.3c2,0,1.6-1.3,1.6-2.5c0-12.3,0-24.6,0-36.9c0-3.6-0.2-7.2-1.2-10.7
			c-2.3-8.5-7.4-12.9-16.1-13.5c-8.2-0.6-15.5,2.2-22.3,6.6c-1.1,0.7-2.2,1.1-1,2.9c1.3,1.9,2.1,0.7,3.1,0c6-4.1,12.6-6.5,20-6
			c5.7,0.4,9.6,3.3,11.8,8.6c1.3,3.2,1.6,6.6,1.9,9.9c0.2,1.9-0.3,2.8-2.5,3c-8,0.9-16,2.2-23.7,5.1c-4.4,1.6-8.3,3.9-11.3,7.5
			c-7.3,8.9-3,23,8,26.2c6.1,1.8,11.8,0.8,17.5-1.6C1080.1,562,1083.8,559.4,1087.9,556.4z M649,512.4c-0.8-2.7-0.5-5.1-0.7-7.5
			c-0.1-1.4-0.2-2.3-2-2.2c-1.8,0.1-1.5,1.2-1.5,2.3c0,4,0,8,0,12c0,15.1,0,30.2,0,45.3c0,1.5-0.1,2.7,2,2.6c2.1,0,1.8-1.3,1.8-2.6
			c0-14.1,0-28.2,0-42.3c0-1.4,0-2.7,1.1-3.8c3.2-3.2,6.5-6.2,10.4-8.6c12.2-7.3,23.8-1.5,25,12.6c0,0.3,0,0.6,0.1,0.9
			c0.5,13.7,0.1,27.4,0.2,41.1c0,1.4-0.3,2.7,2,2.7c2.2,0,1.8-1.3,1.8-2.5c0-13,0-26,0-39c0-2.6-0.3-5.2-0.8-7.7
			c-1.8-9.4-7.5-14.1-17.1-14.3c-6-0.1-11.1,2-15.7,5.6C653.3,508.7,651.3,510.5,649,512.4z M548.7,523.8
			C548.7,523.8,548.7,523.8,548.7,523.8c0,12.9,0.1,25.8-0.1,38.7c0,2.4,1.1,2.6,2.8,2.4c2.2-0.2,1.3-2,1.3-3
			c0.1-25.1,0.1-50.2,0.1-75.3c0-3.9,0-3.9,4.1-3.9c7.2,0,14.4-0.1,21.6,0.1c2.1,0,2.3-0.9,2.1-2.5c-0.2-1.9-1.7-1.1-2.5-1.1
			c-18.2,0-36.4,0-54.6,0c-1.2,0-2.6-0.5-2.7,1.7c-0.1,2.3,1.3,1.8,2.5,1.8c7.3,0,14.6,0.2,21.9,0c3-0.1,3.6,0.9,3.6,3.7
			C548.6,498.8,548.7,511.3,548.7,523.8z M1103.4,512.7c-0.2-3-0.3-5.2-0.4-7.5c-0.1-1.3,0.1-2.6-2-2.5c-2.1,0.1-1.4,1.6-1.4,2.6
			c0,13.7,0,27.4,0,41.1c0,5.4,0.1,10.8-0.1,16.2c-0.1,2.4,1.1,2.4,2.7,2.2c1.8-0.2,1-1.7,1-2.6c0-14.1,0-28.2,0-42.3
			c0-1.2-0.2-2.4,0.8-3.4c4.2-4,8.3-8.1,13.8-10.4c10.2-4.3,19.3,0.4,21.6,11.2c0.4,2.1,0.6,4.2,0.6,6.3c0,12.8,0,25.6,0,38.4
			c0,1.5-0.3,2.9,2.2,2.9c2.5-0.1,1.7-1.8,1.7-2.9c0.1-12.4,0-24.8,0-37.2c0-3.4-0.3-6.8-1.1-10.1c-1.6-6.8-5.4-11.5-12.6-12.9
			c-6.2-1.2-12.1-0.1-17.5,3.4C1109.5,507.2,1106.8,509.8,1103.4,512.7z M704,533.8C704,533.8,704,533.8,704,533.8
			c0-9.5,0-19,0-28.4c0-1.5,0.2-2.7-2.1-2.6c-2.2,0.1-1.8,1.3-1.8,2.6c0,19.1,0,38.1,0,57.2c0,1.4-0.1,2.5,1.9,2.5c2,0,2-1,2-2.4
			C704,552.9,704,543.4,704,533.8z M702.3,486.6c2.5,0,4.3-1.8,4.3-4.4c0-2.5-1.8-4.3-4.4-4.3c-2.5,0-4.3,1.8-4.3,4.4
			C697.9,484.8,699.8,486.6,702.3,486.6z"/>
		<path class="st1" d="M378.8,371.9c-2.5,6.5-4.6,13-7.5,19.3c-16.2,35.1-42.4,59.3-78.8,72.1c-2.4,0.8-3.3,2-3.7,4.6
			c-2.9,18.6-8.7,36.1-20.6,51.1c-12.5,15.7-29.1,24.5-48.3,29.1c-10.8,2.6-21.9,3.7-33,3.7c-1.3,0-2.4-0.2-3.5-1.2
			c-5-4.3-10-8.6-15.1-12.8c-2.2-1.8-3.2-3.9-3.2-6.9c0.1-23.8,0.1-47.6,0-71.4c0-2.4,0.7-2.9,3-3c5.8-0.2,11.6-0.5,16.9-3.2
			c2.6-1.3,4.7-3,5.6-5.9c0.5-1.3,0.2-2.1-1.3-2.6c-39.6-14.5-67.5-41.4-80.1-81.6c-17-54.4-5.8-103.4,35.3-143.7
			c27.1-26.6,60.5-38.5,98.6-35.8c22.2,1.6,42.4,9.5,61,21.6c33.8,21.9,58,51.6,71.6,89.7c1.1,3.1,2,6.2,3.2,10.2
			c0.7-6.9,1.2-13.1,2.6-19.1c10.8-46.7,37.5-79.9,83.3-95.8c33.4-11.7,65.8-6.7,95.9,11.2c36.1,21.5,61,52.2,74.6,92
			c0.1,0.2,0.3,0.4,0.8,1c1-7.3,2.4-14.1,4.6-20.7c14.3-43.1,42.1-72.8,86.2-85.4c32.8-9.4,63.8-3.2,92.5,14.6
			c33.1,20.5,56.6,49.2,70.4,85.7c0.2,0.5,0.4,1.1,0.9,2.2c0.4-5.2,0.6-9.8,1.2-14.3c5.8-47,41.8-84.5,88.6-91.8
			c30.3-4.7,57.7,2.2,81.8,21.5c1.8,1.4,2.7,1.2,4.4-0.1c21.9-17.1,46.7-24.9,74.5-22.3c22.3,2,42.1,10.6,60,23.8
			c22.5,16.7,38.9,38.1,48.3,64.5c4.5,12.5,6.5,25.5,6.4,38.8c-0.1,50.1,0,100.2,0,150.3c0,2-0.4,2.7-2.6,2.7
			c-23.9-0.1-47.8-0.1-71.7,0c-1.5,0-2.6-0.4-3.8-1.4c-5.4-4.9-10.9-9.7-16.4-14.5c-1.3-1.2-1.9-2.3-1.9-4.1
			c0.1-50.7,0-101.4,0.1-152.1c0-13.6-5.3-13.4-14.9-11.6c-14.3,2.7-23.3,14.5-23.3,29.9c-0.1,30.1,0,60.2,0,90.3
			c0,20.4,0,40.8,0,61.2c0,1.9-0.5,2.3-2.3,2.3c-24.1-0.1-48.2-0.1-72.3,0c-1.4,0-2.4-0.5-3.5-1.4c-5.3-4.8-10.7-9.6-16.2-14.3
			c-1.5-1.3-2.1-2.6-2.1-4.6c0.1-49.9,0.1-99.8,0-149.7c0-2.3,0.1-4.6-0.2-6.9c-0.8-5.9-3.1-7.8-9-7.5c-17.2,0.8-28.9,13-28.9,30.3
			c0,41.4,0,82.8,0,124.2c0,9.1-0.1,18.2,0.1,27.3c0,2.1-0.6,2.6-2.7,2.6c-23.8-0.1-47.6-0.1-71.4,0c-1.7,0-3-0.5-4.3-1.7
			c-3.6-3.3-7.2-6.4-11.3-10.1c0,3.4-0.2,6.2,0.1,8.9c0.2,2.3-0.5,2.8-2.8,2.8c-16.3-0.1-32.6-0.1-48.9-0.1c-7.3,0-14.6,0-21.9,0.1
			c-1.7,0-3-0.5-4.3-1.7c-5.4-4.9-10.9-9.7-16.4-14.5c-1.3-1.1-1.6-2.3-1.6-3.9c0.1-10.3,0-20.6,0.1-30.9c0-2.1-0.5-2.7-2.7-2.7
			c-21.9,0.1-43.8,0.1-65.7,0c-2.2,0-2.4,0.8-2.4,2.6c0,16,0,32,0.1,48c0,2.6-0.8,3.1-3.2,3.1c-23.7-0.1-47.4,0-71.1,0
			c-1.5,0-2.6-0.4-3.8-1.4c-3.6-3.3-7.4-6.6-11.7-10.4c0,3.8-0.1,6.7,0,9.7c0.1,1.6-0.4,2.1-2,2.1c-2.7-0.1-5.4,0-8.1,0
			c-20.9,0-41.8,0-62.7,0c-2.2,0-4-0.5-5.6-2.1c-5.1-4.7-10.2-9.3-15.4-13.8c-1.4-1.2-2-2.4-2-4.3c0.1-10.3,0-20.6,0.1-30.9
			c0-2.1-0.6-2.7-2.7-2.6c-21.9,0.1-43.8,0.1-65.7,0c-2.1,0-2.4,0.7-2.4,2.5c0.1,16.1,0,32.2,0.1,48.3c0,2.2-0.4,2.9-2.7,2.9
			c-23.9-0.1-47.8-0.1-71.7,0c-1.4,0-2.4-0.3-3.4-1.3c-5.6-5-11.2-10-16.9-14.9c-1.5-1.2-1.5-2.7-1.5-4.3
			C378.8,419.5,378.8,395.7,378.8,371.9z M900.2,357.5C900.1,357.5,900.1,357.5,900.2,357.5c-0.1,25.3,0,50.6-0.1,75.9
			c0,2.2,0.4,3.1,2.9,3.1c17.8-0.1,35.6-0.2,53.4,0c2.9,0,3.5-0.7,3.5-3.6c-0.1-47.5-0.1-95-0.1-142.5c0-10.6,3.3-20,10.9-27.4
			c11.6-11.2,25.4-13.8,40.4-8.3c13.9,5.2,23.2,18.6,23.3,33.7c0.2,24.4,0.1,48.8,0.1,73.2c0,24,0,48,0,72c0,2.2,0.5,2.8,2.8,2.8
			c17.9-0.1,35.8-0.1,53.7,0c2.9,0,3.4-0.9,3.3-3.5c-0.1-12.8-0.1-25.6-0.1-38.4c0-35.3-0.2-70.6,0.1-105.9
			c0.1-14.4,6.9-25.6,19.7-32.3c13-6.8,26.2-6,38.4,2c11.6,7.6,16.8,18.8,16.8,32.6c0,47.4,0,94.8-0.1,142.2c0,2.7,0.7,3.3,3.3,3.3
			c17.8-0.1,35.6-0.1,53.4,0c2.1,0,2.7-0.5,2.7-2.6c-0.1-48.4,0-96.8-0.1-145.2c-0.1-19.6-6-37.6-17.3-53.6
			c-25-35.8-68.6-50.6-110.1-37.4c-13.2,4.2-24.8,11.4-35,20.9c-1.3,1.3-2.3,1.6-3.6,0c-0.5-0.7-1.3-1.2-2-1.8
			c-21.2-18.5-46-26.3-73.8-23.2c-48.8,5.3-85.7,45.8-86.5,94.8C899.8,311.3,900.2,334.4,900.2,357.5z M173.8,495.3
			c0,8.6,0,17.2,0,25.8c0,3.1,0.9,4,3.9,3.8c1.5-0.1,3-0.5,4.4-0.5c9.6-0.2,18.7-2.8,27.6-5.9c13.7-4.7,24.8-13.4,33.8-24.7
			c5.9-7.4,10.6-15.6,13.6-24.6c1.7-5.1,3.4-10.3,4.5-15.6c0.8-3.8,0.9-7.7,1.6-11.5c0.3-1.7,0.7-3.3,2.9-3.6c6.1-0.8,11.4-3.9,17-6
			c3.9-1.4,7.4-3.6,11-5.8c8.3-4.9,15.7-10.7,22.8-17.1c7.9-7.2,14.2-15.8,20-24.7c4.7-7.4,8.4-15.3,11.3-23.6
			c1.9-5.5,3.1-11.2,4.7-16.8c1.8-6.4,2.5-13,2.5-19.5c0-6,0.1-12-0.2-18.1c-0.7-14.4-4.9-27.8-10.3-40.9
			c-2.7-6.4-6.4-12.4-10.2-18.3c-5.8-9.1-13.2-16.9-21-24.3c-7.4-6.9-15.7-12.5-24.5-17.4c-7.9-4.4-16.5-7.3-25.1-9.8
			c-8-2.3-16.3-3.4-24.7-3.8c-10.3-0.5-20.6,0.2-30.8,2.3c-5.8,1.2-11.6,2.7-17.1,4.9c-12.1,4.7-23.1,11.3-33.2,19.4
			c-10.7,8.5-19.7,18.6-27,30.1c-2.9,4.6-5.6,9.3-8,14.2c-2.3,4.7-4.1,9.7-5.9,14.6c-1.4,3.6-1.6,7.6-2.8,11.2
			c-2.6,7.6-3.3,15.4-3.4,23.1c-0.1,5.8-0.4,11.7,0.3,17.5c0.6,4.6,1,9.3,2.1,13.8c1.1,4.4,2.2,8.7,3.6,13
			c2.5,7.6,5.4,15.1,9.2,22.1c3.6,6.7,7.9,13,12.8,18.9c7.4,8.9,15.6,16.9,25.2,23.5c8.5,5.9,17.4,10.7,26.9,14.4
			c2.9,1.1,5.9,2.5,9,2.9c3.2,0.4,3.2,2.2,2.8,4.4c-0.3,1.8-1.2,3.6-1.6,5.4c-1.5,6.2-5.9,10.6-10.5,13.9c-3,2.1-7.7,3-12,2.9
			c-4.7-0.1-5.1,0.4-5.1,5.1C173.8,478.6,173.8,487,173.8,495.3z M388,363c0,26.1,0,48.2-0.1,70.3c0,2.5,0.7,3.1,3.1,3.1
			c17.8-0.1,35.6-0.1,53.4,0c2.6,0,3.4-0.5,3.3-3.2c-0.1-15.9,0-31.8-0.1-47.7c0-2,0.3-2.7,2.5-2.7c33.9,0.1,67.8,0.1,101.7,0
			c2.4,0,3,0.6,2.9,2.9c-0.1,16,0,32-0.1,48c0,2.1,0.6,2.7,2.7,2.7c18-0.1,36-0.1,54,0c2.3,0,2.7-0.6,2.7-2.8
			c-0.1-40.9,0.4-81.8-0.2-122.7c-0.6-38.5-15.8-70.5-46.1-94.8c-33.3-26.6-81.9-30.6-118.7-9.5c-37.8,21.6-57.6,55-60.7,98
			C386.9,325.4,388.3,346.2,388,363z M870.3,363.7c-0.3-17,0.9-37.9-0.4-58.7c-2.2-35.8-17-65.5-45-88.2
			c-34.2-27.8-84.7-31.6-122.3-8.6c-38,23.2-57.2,57.9-58.2,101.9c-0.9,41.3-0.2,82.6-0.3,123.9c0,2,0.6,2.5,2.5,2.5
			c18.2-0.1,36.4-0.1,54.6,0c2.1,0,2.7-0.5,2.6-2.6c-0.1-16,0-32-0.1-48c0-2.3,0.5-3,2.9-3c33.8,0.1,67.6,0.1,101.4,0
			c2.6,0,3,0.8,3,3.2c-0.1,15.8,0,31.6-0.1,47.4c0,2.6,0.7,3.1,3.1,3.1c17.7-0.1,35.4-0.1,53.1,0c2.8,0,3.2-0.9,3.2-3.4
			C870.2,411.3,870.3,389.5,870.3,363.7z"/>
		<path class="st2" d="M455.9,522.1c-0.1,10.6-2,20.6-7.9,29.6c-5.3,8-12.6,13-22.2,14.3c-2.5,0.3-2.2,1.1-1.2,2.8
			c5.3,9.3,15.4,13.4,27.7,11.3c0.9-0.2,2.1-1.1,2.7,0.6c0.6,1.6,1.1,2.7-1.5,3.2c-12.5,2.1-23.7,0-31-11c-3.1-4.6-6.2-6.9-11.4-8.3
			c-8.6-2.2-14.6-8.2-18.4-16.1c-8.2-17.1-8.5-34.6-0.7-51.8c5.9-13,17.8-19.8,31.2-19c13.7,0.8,24.7,9.6,29.6,23.8
			C455,508.2,456,515.1,455.9,522.1z M390.8,522.1c-0.1,5.4,0.6,11.7,2.6,17.7c3.4,10.4,9.3,18.7,20.3,21.8
			c13.7,3.8,26.8-2.4,33-16.1c6.8-15.2,6.9-30.9,0.5-46.3c-4.7-11.2-13.4-17.8-26-17.8c-12.6,0.1-20.9,6.8-26,17.9
			C391.9,506.3,390.8,513.7,390.8,522.1z"/>
		<path class="st2" d="M1187.4,506.4c11,11,8.1,26.5,0.1,33.4c-6.7,5.7-14.3,6.8-22.4,3.5c-1.9-0.8-3-0.6-4.3,0.9
			c-2.8,3.2-4.4,6.7-2.8,11c1.5,4.1,5.2,5.1,9,5.2c5.7,0.3,11.4,0.1,17.1,0.2c2.9,0,5.8,0.3,8.6,1c8.9,2.1,12.8,9.5,9.6,18.1
			c-3,7.9-9.5,11.9-17.1,14.1c-7.3,2.1-14.6,1.9-21.9-0.2c-6.5-1.9-11.7-5.3-13.3-12.4c-1.6-7,1.8-12.2,6.6-16.7
			c1.7-1.6,2.3-2.1,0.2-4.1c-5-4.7-4.5-12.4,1.1-17.8c1.8-1.7,1.8-2.5,0.1-4.4c-11.1-12.5-5.7-32,9.9-36.2c2.4-0.6,5-1.1,7.4-0.5
			c8.1,2,16.3,1.1,24.4,1.3c0.8,0,2.2-0.7,2.4,0.9c0.2,1.4,0.3,2.8-2,2.7C1196.2,506.2,1192.1,506.4,1187.4,506.4z M1174,591.5
			c4.6,0,8.6-0.5,12.5-2c5.8-2.3,10.6-5.7,12.4-12c1.6-5.8-1-10.3-6.7-12c-2.6-0.8-5.3-1-8-1c-5.6,0-11.3,0.6-16.7-0.4
			c-4.9-0.9-7.7,1-10.5,4.3c-5.7,6.9-4.2,15.3,3.4,19.9C1164.7,590.9,1169.6,591.3,1174,591.5z M1173.4,504.9
			c-9.9,0-17.1,7.5-17.2,18c-0.1,10.4,7.4,18.5,17.1,18.6c9.7,0,17.3-8,17.4-18.3C1190.7,512.6,1183.4,504.9,1173.4,504.9z"/>
		<path class="st2" d="M935.7,520.7c-3,10.6-7.1,20.6-13.7,29.4c-1.4,1.9-1.2,2.7,0.6,3.9c4.1,3,8.2,6,13,8c1.9,0.8,1.4,1.6,0.9,2.9
			c-0.6,1.7-1.5,1.1-2.5,0.7c-5.2-2.3-9.8-5.4-14.1-9c-1.3-1.1-2.1-1.1-3.4,0.2c-7.9,7.7-17.2,11.5-28.4,8.6
			c-16.2-4.1-22.4-22.9-11.9-36c3.1-3.9,6.7-7.1,10.7-10c1.7-1.2,1.7-2.2,0.9-3.9c-3-6.3-4.9-12.9-4.7-19.9
			c0.2-10.5,7.1-17.8,16.6-17.9c7.4,0,12.5,4.5,13.5,12.1c0.6,5.1-0.5,9.7-3.5,13.9c-3.8,5.3-8.8,9.3-14,13c-2,1.4-2.1,2.5-0.9,4.6
			c5.9,10.2,13.3,19.2,21.7,27.4c1.4,1.4,1.9,0.9,2.9-0.4c5.6-7.5,9.3-16,12-25C932.1,520.3,932.1,520.3,935.7,520.7z M875.1,543.1
			c0,9.1,5.5,16.4,14.2,18.8c8.8,2.5,16.1-0.5,22.7-6.1c3.5-2.9,3.5-2.9,0.3-6.1c-0.9-0.9-1.8-1.8-2.7-2.8
			c-7-7.3-13.2-15.3-18.2-24.1c-1-1.7-1.7-2.1-3.3-0.6c-1.8,1.8-4,3.4-5.8,5.2C878.3,531.9,874.9,536.7,875.1,543.1z M886.6,495.8
			c0.1,6.6,2,12.5,4.4,18.2c0.5,1.3,1.1,1.4,2.2,0.5c3.7-2.9,7.4-5.7,10.6-9.2c2.4-2.6,4.2-5.5,5.2-9c1.3-4.9-0.3-10.9-3.8-13.4
			c-3.4-2.5-8.6-2.5-12.4,0.1C888.2,486.2,886.8,490.9,886.6,495.8z"/>
		<path class="st2" d="M1000.1,514c3.4-3.2,6.5-6.5,10.3-8.9c3.5-2.3,7.3-3.8,11.5-3.7c9.6,0.2,15.4,5.3,17.1,15.1
			c0.5,2.6,0.6,5.2,0.6,7.8c0,12.7,0,25.4,0,38.1c0,1.2,0.6,2.6-1.7,2.6c-2.2,0-2.1-1.1-2.1-2.6c0-12.4,0-24.8,0-37.2
			c0-3.4-0.3-6.8-1.3-10.1c-2.5-8.4-10.1-12.3-18.4-9.4c-6,2.1-10.2,6.5-14.4,10.9c-1,1-0.6,2.3-0.6,3.4c0,14.1,0,28.2,0,42.3
			c0,1.5,0.2,2.7-2,2.6c-2.2-0.1-1.7-1.4-1.7-2.6c-0.2-13.7,0.3-27.4-0.3-41.1c-0.1-2.1-0.4-4.2-1.1-6.2
			c-2.6-8.6-10.3-12.4-18.7-9.2c-5.8,2.2-10.1,6.4-14.1,10.9c-0.9,1-0.6,2.1-0.6,3.1c0,14.1,0,28.2,0,42.3c0,1.2,0.6,2.8-1.8,2.8
			c-2.4,0-2-1.4-2-2.7c0-19,0-38,0-57c0-1.1-0.5-2.4,1.6-2.5c1.9-0.1,1.7,1.1,1.8,2.3c0.1,2.4,0.3,4.7,0.5,7.8c3.1-3,5.8-5.7,9-7.8
			c5.2-3.4,10.8-4.6,16.9-3c4.4,1.2,7.6,3.8,9.6,8C998.8,511.3,999.4,512.5,1000.1,514z"/>
		<path class="st2" d="M757.4,514c3.2-3.2,6.1-6.2,9.6-8.6c5-3.5,10.4-4.9,16.5-3.7c7.5,1.6,12.2,7.4,13.1,16.6
			c0.9,8.9,0.3,17.8,0.4,26.7c0.1,5.6,0,11.2,0,16.8c0,1.3,0.8,3.1-1.8,3.1c-2.6,0.1-2-1.6-2-3c0-12.1,0-24.2,0-36.3
			c0-3.3-0.2-6.6-1-9.8c-2.4-9.4-10.9-13.6-19.8-9.7c-5.2,2.3-9.3,6.1-13,10.4c-0.9,1-0.8,2.2-0.8,3.4c0,14.1,0,28.2-0.1,42.3
			c0,1,0.8,2.5-1.3,2.7c-2.1,0.2-2.5-0.5-2.5-2.5c0.1-12.2,0-24.4,0-36.6c0-3.4-0.2-6.8-1.1-10.1c-2.4-9.3-11-13.5-19.9-9.5
			c-5.1,2.3-9.1,6-12.8,10.1c-1,1.1-0.9,2.4-0.9,3.6c0,14.1,0,28.2,0,42.3c0,1,0.6,2.4-1.5,2.6c-2.3,0.2-2.3-0.9-2.3-2.6
			c0-17.2,0-34.4,0-51.6c0-2.1,0-4.2,0-6.3c0-1.1,0.3-1.6,1.5-1.6c1.2,0,1.9,0.2,1.9,1.6c0,2.5,0.2,5,0.4,7.4c1.2,0.6,1.5-0.3,2-0.8
			c2.3-2.5,4.9-4.7,7.9-6.4C741.2,497.8,751.7,501.3,757.4,514z"/>
		<path class="st2" d="M459.3,509.8c0-9.3,0-18.6,0-27.9c0-1.5-0.4-2.9,2.1-2.9c2.4,0,1.9,1.5,1.9,2.8c0,16.8,0,33.6,0,50.4
			c0,3.8,0.4,7.6,1.2,11.3c3.5,16.5,16.5,21.3,30,18.1c9.1-2.1,13.7-8.7,16-17.3c1-4,1.3-8.1,1.3-12.2c0-16.8,0-33.6,0-50.4
			c0-1.6-0.2-3,2.3-2.7c1.3,0.2,1.6,0.6,1.6,1.8c-0.1,18.4,0.1,36.8-0.2,55.2c-0.1,8.3-1.9,16.4-8.1,22.6c-8.5,8.4-19,9.3-29.8,6.2
			c-10.8-3-15.6-11.4-17.5-21.8c-1.3-6.9-0.7-14-0.8-20.9C459.3,518,459.3,513.9,459.3,509.8C459.3,509.8,459.3,509.8,459.3,509.8z"
			/>
		<path class="st2" d="M829.1,533.9c-6.9,0-13.8,0-20.7,0c-1.2,0-2.2-0.1-2.1,1.6c0.5,7.3,2.3,14.2,7.4,19.8c8.1,8.8,21,10,32.3,2.9
			c1.7-1.1,2.2-0.7,3,0.8c0.7,1.4-0.2,1.8-1,2.3c-15.6,9.6-38.6,5.9-44.4-17c-2.9-11.5-1.7-22.7,5.5-32.6c6.5-9,17.6-12.6,27.9-9.2
			c7.9,2.6,11.9,8.7,14,16.3c1.1,4.2,1.3,8.5,1.3,12.8c0,1.9-0.8,2.3-2.5,2.3C842.9,533.9,836,533.9,829.1,533.9
			C829.1,533.9,829.1,533.9,829.1,533.9z M827.4,530.6C827.4,530.6,827.4,530.6,827.4,530.6c6.2,0,12.4-0.1,18.6,0.1
			c2,0,2.6-0.6,2.4-2.5c-0.3-3.6-0.8-7.1-2-10.5c-3.6-10.3-13.9-15.3-24.1-11.5c-9.4,3.5-14.7,13.1-15.9,22.9c-0.2,1.9,1,1.6,2,1.6
			C814.9,530.6,821.2,530.6,827.4,530.6z"/>
		<path class="st2" d="M633.5,556.4c-5.9,4.4-11.4,8.1-18.2,9.4c-6.5,1.2-12.8,0.7-17.9-4.2c-6.6-6.3-6.1-18.8,0.9-24.7
			c6.9-5.8,15.3-7.4,23.8-9.1c3.1-0.6,6.3-1.1,9.5-1.4c1.5-0.2,2.1-0.6,2-2.1c-0.1-3.7-0.6-7.4-1.9-10.9c-2.3-5.8-7.4-8.9-14-8.6
			c-6.8,0.3-12.9,2.6-18.3,6.5c-0.9,0.6-1.6,1.1-2.1-0.1c-0.3-0.8-2-1.6-0.3-2.7c8.7-5.6,17.8-9.1,28.3-6.2c6.6,1.8,9.7,7,11.2,13.2
			c0.8,3.5,1,7.1,1,10.7c0,12.1,0,24.2,0,36.3c0,1.2,0.3,2.3-1.7,2.3c-1.9,0-1.7-1.1-1.8-2.3C633.8,560.7,633.7,558.8,633.5,556.4z
			 M633.5,541c0-3.1-0.1-6.2,0-9.3c0.1-1.8-0.6-2.3-2.3-2c-4,0.7-8.1,1.2-12.1,2c-6.2,1.4-12.5,3-17.5,7.2c-4.5,3.8-6.1,10-4.1,15.8
			c1.8,5.1,6.2,7.9,12.4,8.1c7.2,0.2,13-3.1,18.8-6.9c3.5-2.3,5.5-4.9,4.8-9.3C633.3,544.8,633.5,542.9,633.5,541z"/>
		<path class="st2" d="M1247.1,556.6c-4.3,3.3-8.4,6-13.1,7.8c-5.5,2.1-11.1,2.6-16.7,0.8c-6.5-2.1-9.9-6.8-10.5-13.5
			c-0.7-7,1.8-12.6,7.6-16.5c7.1-4.7,15.2-6.3,23.4-7.7c2.7-0.4,5.3-0.8,8-1.1c0.8-0.1,1.6-0.2,1.6-1.3c-0.1-6.6-0.6-13.1-6.4-17.6
			c-4.5-3.4-9.6-3-14.7-2c-4.7,0.9-8.9,2.9-12.8,5.6c-1.1,0.7-1.8,1.4-2.8-0.2c-1-1.5-0.4-2,0.8-2.8c7-4.4,14.5-7.3,22.9-6.7
			c8.5,0.6,13.8,5.3,15.9,13.8c0.8,3.3,1,6.7,1.1,10.1c0,12.4,0,24.8,0,37.2c0,1.2,0.4,2.4-1.6,2.4c-1.9,0-1.8-1.1-1.8-2.3
			C1247.7,560.7,1247.8,558.8,1247.1,556.6z M1247.4,541.5C1247.4,541.5,1247.4,541.5,1247.4,541.5c0-3-0.2-6,0-9
			c0.1-2.4-0.5-3.2-3-2.7c-5.6,1-11.2,1.7-16.7,3.3c-4.3,1.3-8.5,2.8-12,5.8c-4.6,3.8-6.3,10.1-4.3,15.7c1.8,5.1,6.2,7.9,12.4,8.2
			c6.5,0.3,11.9-2.5,17.3-5.7c4.7-2.8,7.5-6.2,6.4-12C1247.2,543.9,1247.4,542.7,1247.4,541.5z"/>
		<path class="st2" d="M1087.9,556.4c-4.1,3-7.7,5.6-11.9,7.4c-5.7,2.5-11.4,3.4-17.5,1.6c-11-3.2-15.3-17.3-8-26.2
			c3-3.7,6.9-5.9,11.3-7.5c7.6-2.9,15.6-4.2,23.7-5.1c2.2-0.2,2.6-1.1,2.5-3c-0.3-3.4-0.6-6.7-1.9-9.9c-2.2-5.3-6.1-8.2-11.8-8.6
			c-7.4-0.5-13.9,1.9-20,6c-1,0.7-1.8,1.8-3.1,0c-1.2-1.8-0.1-2.2,1-2.9c6.8-4.3,14.1-7.1,22.3-6.6c8.8,0.6,13.9,5,16.1,13.5
			c0.9,3.5,1.2,7.1,1.2,10.7c0,12.3,0,24.6,0,36.9c0,1.1,0.4,2.4-1.6,2.5c-1.8,0-1.8-1.1-1.9-2.3
			C1088.2,560.7,1088,558.9,1087.9,556.4z M1087.9,540.9c0-1.2,0.1-2.4,0-3.6c-0.1-2.5,1.1-5.7-0.5-7.2c-1.8-1.6-4.9,0-7.4,0.4
			c-7.9,1.3-15.8,2.6-22.6,7.3c-5.4,3.7-7.5,10.1-5.6,16.3c1.6,5.4,6.6,8.5,13.3,8.5c7.3,0,13.1-3.5,18.9-7.4c3-2.1,4.5-4.4,4-8.2
			C1087.6,545.2,1087.9,543,1087.9,540.9z"/>
		<path class="st2" d="M649,512.4c2.3-1.9,4.3-3.8,6.5-5.5c4.6-3.6,9.7-5.8,15.7-5.6c9.6,0.2,15.3,4.9,17.1,14.3
			c0.5,2.5,0.8,5.2,0.8,7.7c0.1,13,0,26,0,39c0,1.2,0.4,2.5-1.8,2.5c-2.3,0-2-1.2-2-2.7c-0.1-13.7,0.3-27.4-0.2-41.1
			c0-0.3,0-0.6-0.1-0.9c-1.2-14.1-12.8-20-25-12.6c-3.9,2.3-7.2,5.4-10.4,8.6c-1.1,1.1-1.1,2.4-1.1,3.8c0,14.1,0,28.2,0,42.3
			c0,1.3,0.3,2.5-1.8,2.6c-2.2,0-2-1.1-2-2.6c0-15.1,0-30.2,0-45.3c0-4,0-8,0-12c0-1-0.3-2.2,1.5-2.3c1.8-0.1,1.9,0.8,2,2.2
			C648.4,507.3,648.2,509.7,649,512.4z"/>
		<path class="st2" d="M548.7,523.8c0-12.5-0.1-25,0.1-37.5c0-2.8-0.6-3.8-3.6-3.7c-7.3,0.2-14.6,0.1-21.9,0c-1.2,0-2.6,0.5-2.5-1.8
			c0.1-2.2,1.4-1.7,2.7-1.7c18.2,0,36.4,0,54.6,0c0.9,0,2.3-0.8,2.5,1.1c0.2,1.6-0.1,2.5-2.1,2.5c-7.2-0.1-14.4-0.1-21.6-0.1
			c-4.1,0-4.1,0-4.1,3.9c0,25.1,0,50.2-0.1,75.3c0,1,0.9,2.8-1.3,3c-1.8,0.2-2.8,0.1-2.8-2.4C548.8,549.6,548.7,536.7,548.7,523.8
			C548.7,523.8,548.7,523.8,548.7,523.8z"/>
		<path class="st2" d="M1103.4,512.7c3.4-2.9,6.1-5.5,9.3-7.6c5.4-3.5,11.3-4.5,17.5-3.4c7.1,1.3,10.9,6.1,12.6,12.9
			c0.8,3.3,1.1,6.7,1.1,10.1c0,12.4,0,24.8,0,37.2c0,1.2,0.9,2.9-1.7,2.9c-2.4,0.1-2.2-1.3-2.2-2.9c0-12.8,0-25.6,0-38.4
			c0-2.1-0.1-4.2-0.6-6.3c-2.3-10.8-11.3-15.5-21.6-11.2c-5.5,2.3-9.6,6.4-13.8,10.4c-1,1-0.8,2.2-0.8,3.4c0,14.1,0,28.2,0,42.3
			c0,0.9,0.8,2.4-1,2.6c-1.6,0.2-2.8,0.2-2.7-2.2c0.2-5.4,0.1-10.8,0.1-16.2c0-13.7,0-27.4,0-41.1c0-1-0.7-2.5,1.4-2.6
			c2.1-0.1,1.9,1.2,2,2.5C1103.1,507.5,1103.2,509.8,1103.4,512.7z"/>
		<path class="st2" d="M704,533.8c0,9.6,0,19.2,0,28.7c0,1.4,0,2.4-2,2.4c-2,0-1.9-1.1-1.9-2.5c0-19.1,0-38.1,0-57.2
			c0-1.3-0.4-2.5,1.8-2.6c2.2-0.1,2.1,1.1,2.1,2.6C704,514.8,704,524.3,704,533.8C704,533.8,704,533.8,704,533.8z"/>
		<path class="st2" d="M702.3,486.6c-2.5,0-4.4-1.8-4.4-4.3c0-2.5,1.8-4.4,4.3-4.4c2.5,0,4.4,1.8,4.4,4.3
			C706.6,484.8,704.8,486.6,702.3,486.6z"/>
		<path class="st0" d="M900.2,357.5c0-23.1-0.3-46.2,0.1-69.3c0.8-48.9,37.7-89.4,86.5-94.8c27.8-3,52.6,4.8,73.8,23.2
			c0.7,0.6,1.5,1.1,2,1.8c1.3,1.6,2.2,1.2,3.6,0c10.2-9.4,21.7-16.7,35-20.9c41.5-13.2,85.1,1.6,110.1,37.4
			c11.2,16.1,17.2,34,17.3,53.6c0.1,48.4,0,96.8,0.1,145.2c0,2.1-0.6,2.6-2.7,2.6c-17.8-0.1-35.6-0.1-53.4,0c-2.6,0-3.3-0.6-3.3-3.3
			c0.1-47.4,0-94.8,0.1-142.2c0-13.8-5.2-25-16.8-32.6c-12.3-8-25.5-8.8-38.4-2c-12.8,6.7-19.6,17.9-19.7,32.3
			c-0.3,35.3-0.1,70.6-0.1,105.9c0,12.8-0.1,25.6,0.1,38.4c0,2.6-0.5,3.5-3.3,3.5c-17.9-0.1-35.8-0.1-53.7,0c-2.3,0-2.8-0.6-2.8-2.8
			c0.1-24,0.1-48,0-72c0-24.4,0.1-48.8-0.1-73.2c-0.1-15.1-9.4-28.5-23.3-33.7c-15-5.6-28.8-3-40.4,8.3
			c-7.6,7.4-10.9,16.8-10.9,27.4c0,47.5,0,95,0.1,142.5c0,2.8-0.6,3.6-3.5,3.6c-17.8-0.2-35.6-0.1-53.4,0c-2.5,0-2.9-0.9-2.9-3.1
			C900.1,408.1,900.1,382.8,900.2,357.5C900.1,357.5,900.1,357.5,900.2,357.5z"/>
		<path class="st2" d="M173.8,495.3c0-8.4,0-16.8,0-25.2c0-4.7,0.4-5.2,5.1-5.1c4.3,0.1,9-0.9,12-2.9c4.7-3.2,9-7.7,10.5-13.9
			c0.4-1.8,1.3-3.6,1.6-5.4c0.4-2.2,0.4-4-2.8-4.4c-3.1-0.4-6-1.7-9-2.9c-9.5-3.8-18.5-8.6-26.9-14.4c-9.6-6.6-17.8-14.6-25.2-23.5
			c-4.9-5.9-9.2-12.2-12.8-18.9c-3.8-7-6.7-14.5-9.2-22.1c-1.4-4.3-2.5-8.7-3.6-13c-1.1-4.5-1.5-9.2-2.1-13.8
			c-0.8-5.8-0.5-11.7-0.3-17.5c0.2-7.7,0.8-15.5,3.4-23.1c1.2-3.5,1.5-7.5,2.8-11.2c1.8-4.9,3.6-9.9,5.9-14.6c2.4-4.9,5-9.6,8-14.2
			c7.4-11.5,16.3-21.5,27-30.1c10.2-8.1,21.2-14.7,33.2-19.4c5.5-2.2,11.3-3.7,17.1-4.9c10.2-2.1,20.5-2.8,30.8-2.3
			c8.3,0.4,16.7,1.5,24.7,3.8c8.6,2.5,17.2,5.4,25.1,9.8c8.8,4.9,17.1,10.4,24.5,17.4c7.9,7.4,15.3,15.2,21,24.3
			c3.7,5.9,7.5,11.9,10.2,18.3c5.4,13.1,9.5,26.5,10.3,40.9c0.3,6,0.2,12.1,0.2,18.1c0,6.5-0.6,13-2.5,19.5
			c-1.6,5.6-2.8,11.3-4.7,16.8c-2.9,8.3-6.6,16.2-11.3,23.6c-5.8,8.9-12,17.5-20,24.7c-7.1,6.4-14.5,12.3-22.8,17.1
			c-3.6,2.1-7.2,4.3-11,5.8c-5.6,2.1-10.9,5.2-17,6c-2.2,0.3-2.6,1.8-2.9,3.6c-0.7,3.8-0.8,7.7-1.6,11.5c-1.1,5.3-2.8,10.5-4.5,15.6
			c-3,9-7.7,17.2-13.6,24.6c-9,11.3-20.1,20-33.8,24.7c-8.9,3.1-18,5.7-27.6,5.9c-1.5,0-2.9,0.5-4.4,0.5c-3,0.1-3.9-0.8-3.9-3.8
			C173.8,512.5,173.8,503.9,173.8,495.3z M232.8,383.4c14.3,0.8,26.9-3.7,38-12.4c7.2-5.7,12.8-12.8,17.4-20.8
			c5.8-10,8.1-20.8,8.4-32c0.2-7.6-1.4-15.1-3.8-22.5c-3.1-9.5-8.4-17.7-15.2-24.6c-5.2-5.3-11.2-10-18.4-13.1
			c-7.7-3.3-15.6-5.6-23.9-5.8c-7.4-0.1-14.7,0.8-21.9,3.7c-4.7,1.9-9.4,3.8-13.6,6.6c-8.8,5.7-15.6,13.4-20.8,22.6
			c-1.4,2.4-3,4.8-3.7,7.3c-1.1,3.7-2.1,7.6-3.1,11.4c-1.7,6.6-1.4,13.1-1.3,19.6c0.1,4.4,0.7,9,2.1,13.1c2.7,8.3,6,16.4,11.9,23.2
			c5.8,6.7,11.8,13,19.9,17C213.6,381,222.7,384.1,232.8,383.4z"/>
		<path class="st0" d="M388,363c0.2-16.8-1.1-37.7,0.4-58.4c3.2-43,22.9-76.4,60.7-98c36.9-21.1,85.5-17.1,118.7,9.5
			c30.3,24.2,45.5,56.2,46.1,94.8c0.6,40.9,0.1,81.8,0.2,122.7c0,2.2-0.4,2.8-2.7,2.8c-18-0.1-36-0.1-54,0c-2.1,0-2.7-0.6-2.7-2.7
			c0.1-16,0-32,0.1-48c0-2.4-0.6-3-2.9-2.9c-33.9,0.1-67.8,0.1-101.7,0c-2.2,0-2.6,0.7-2.5,2.7c0.1,15.9-0.1,31.8,0.1,47.7
			c0,2.8-0.8,3.2-3.3,3.2c-17.8-0.1-35.6-0.1-53.4,0c-2.4,0-3.2-0.5-3.1-3.1C388.1,411.2,388,389.1,388,363z M501.2,323.6
			C501.2,323.6,501.2,323.6,501.2,323.6c14.8,0,29.6,0.1,44.4,0c3.1,0,7.1,1.3,8.9-0.6c1.5-1.7,0.4-5.7,0.5-8.7
			c0.3-13.8-3.3-26.5-11-37.9c-12.7-18.9-33.2-27.6-54.2-22.4c-18.7,4.6-30.5,17.3-37.6,34.8c-4.2,10.3-4.5,21.2-4.4,32.1
			c0,2.2,0.5,2.8,2.8,2.8C467.4,323.5,484.3,323.6,501.2,323.6z"/>
		<path class="st0" d="M870.3,363.7c0,25.7,0,47.5,0.1,69.3c0,2.5-0.4,3.4-3.2,3.4c-17.7-0.2-35.4-0.1-53.1,0
			c-2.4,0-3.2-0.5-3.1-3.1c0.1-15.8,0-31.6,0.1-47.4c0-2.4-0.4-3.2-3-3.2c-33.8,0.1-67.6,0.1-101.4,0c-2.4,0-3,0.7-2.9,3
			c0.1,16,0,32,0.1,48c0,2.1-0.6,2.7-2.6,2.6c-18.2-0.1-36.4-0.1-54.6,0c-1.9,0-2.5-0.4-2.5-2.5c0.1-41.3-0.7-82.6,0.3-123.9
			c1-44.1,20.3-78.8,58.2-101.9c37.6-22.9,88.1-19.1,122.3,8.6c28,22.7,42.8,52.4,45,88.2C871.1,325.9,870,346.8,870.3,363.7z
			 M757.3,323.6c14.2,0,28.4,0,42.6,0c3.6,0,7.2-0.1,10.7-0.2c0.7-3.6,0.2-7.1,0.3-10.7c0.1-11-2.4-21.4-7.8-31
			c-9.3-16.5-22.7-27.4-42.1-29c-21.6-1.7-41.2,10.7-51,31.4c-5.5,11.6-6.7,23.9-6.4,36.5c0.1,2.3,0.5,3,3,3
			C723.5,323.5,740.4,323.6,757.3,323.6z"/>
		<path class="st0" d="M390.8,522.1c0-8.5,1.1-15.8,4.3-22.8c5.1-11.1,13.5-17.8,26-17.9c12.6-0.1,21.3,6.5,26,17.8
			c6.4,15.3,6.4,31-0.5,46.3c-6.2,13.7-19.2,19.9-33,16.1c-11.1-3.1-17-11.3-20.3-21.8C391.4,533.8,390.7,527.6,390.8,522.1z"/>
		<path class="st0" d="M1174,591.5c-4.5-0.3-9.3-0.7-13.7-3.3c-7.6-4.6-9.1-13-3.4-19.9c2.7-3.3,5.5-5.2,10.5-4.3
			c5.4,1,11.1,0.4,16.7,0.4c2.7,0,5.4,0.2,8,1c5.8,1.7,8.4,6.2,6.7,12c-1.8,6.4-6.6,9.8-12.4,12C1182.7,591,1178.6,591.6,1174,591.5
			z"/>
		<path class="st0" d="M1173.4,504.9c10,0,17.3,7.7,17.3,18.3c0,10.4-7.6,18.4-17.4,18.3c-9.7,0-17.1-8.2-17.1-18.6
			C1156.3,512.4,1163.5,504.9,1173.4,504.9z"/>
		<path class="st0" d="M875.1,543.1c-0.2-6.4,3.2-11.2,7.3-15.5c1.8-1.9,3.9-3.4,5.8-5.2c1.5-1.6,2.3-1.1,3.3,0.6
			c5,8.8,11.1,16.8,18.2,24.1c0.9,0.9,1.8,1.9,2.7,2.8c3.2,3.1,3.2,3.1-0.3,6.1c-6.6,5.5-13.9,8.5-22.7,6.1
			C880.6,559.5,875.1,552.2,875.1,543.1z"/>
		<path class="st0" d="M886.6,495.8c0.2-4.9,1.6-9.6,6.2-12.7c3.8-2.6,9.1-2.6,12.4-0.1c3.4,2.5,5.1,8.4,3.8,13.4
			c-0.9,3.5-2.8,6.4-5.2,9c-3.2,3.5-7,6.2-10.6,9.2c-1.1,0.9-1.6,0.8-2.2-0.5C888.6,508.2,886.7,502.4,886.6,495.8z"/>
		<path class="st0" d="M827.4,530.6c-6.3,0-12.6,0-18.9,0c-1,0-2.3,0.3-2-1.6c1.2-9.9,6.5-19.4,15.9-22.9
			c10.2-3.8,20.5,1.1,24.1,11.5c1.2,3.4,1.7,7,2,10.5c0.2,2-0.5,2.6-2.4,2.5C839.8,530.5,833.6,530.6,827.4,530.6
			C827.4,530.6,827.4,530.6,827.4,530.6z"/>
		<path class="st0" d="M633.5,541c0,1.9-0.3,3.8,0.1,5.7c0.7,4.4-1.2,7-4.8,9.3c-5.8,3.8-11.6,7.1-18.8,6.9
			c-6.2-0.2-10.6-3-12.4-8.1c-2-5.7-0.5-12,4.1-15.8c5.1-4.2,11.3-5.8,17.5-7.2c4-0.9,8.1-1.3,12.1-2c1.7-0.3,2.3,0.2,2.3,2
			C633.4,534.8,633.5,537.9,633.5,541z"/>
		<path class="st0" d="M1247.4,541.5c0,1.2-0.2,2.4,0,3.6c1.2,5.8-1.6,9.2-6.4,12c-5.4,3.2-10.8,6-17.3,5.7
			c-6.2-0.3-10.6-3.1-12.4-8.2c-2-5.6-0.3-11.9,4.3-15.7c3.5-3,7.7-4.5,12-5.8c5.5-1.6,11.1-2.3,16.7-3.3c2.4-0.4,3.1,0.4,3,2.7
			C1247.3,535.5,1247.4,538.5,1247.4,541.5C1247.4,541.5,1247.4,541.5,1247.4,541.5z"/>
		<path class="st0" d="M1087.9,540.9c0,2.1-0.3,4.2,0.1,6.3c0.6,3.7-1,6.1-4,8.2c-5.7,4-11.6,7.4-18.9,7.4c-6.8,0-11.7-3.2-13.3-8.5
			c-1.9-6.2,0.3-12.6,5.6-16.3c6.8-4.7,14.7-6,22.6-7.3c2.5-0.4,5.6-2.1,7.4-0.4c1.6,1.4,0.3,4.7,0.5,7.2
			C1087.9,538.5,1087.9,539.7,1087.9,540.9z"/>
		<path class="st1" d="M232.8,383.4c-10.1,0.7-19.2-2.4-28.1-6.8c-8.1-4-14.1-10.3-19.9-17c-5.9-6.8-9.1-14.9-11.9-23.2
			c-1.4-4.2-2-8.7-2.1-13.1c-0.2-6.5-0.5-13,1.3-19.6c1-3.8,1.9-7.7,3.1-11.4c0.8-2.5,2.4-4.9,3.7-7.3c5.2-9.1,12-16.8,20.8-22.6
			c4.2-2.7,8.9-4.7,13.6-6.6c7.1-2.9,14.5-3.8,21.9-3.7c8.3,0.2,16.2,2.5,23.9,5.8c7.2,3.1,13.2,7.7,18.4,13.1
			c6.8,6.9,12.1,15.1,15.2,24.6c2.4,7.4,4,14.9,3.8,22.5c-0.3,11.2-2.6,22-8.4,32c-4.7,8-10.2,15.1-17.4,20.8
			C259.7,379.7,247.1,384.2,232.8,383.4z M197.2,336.8c-0.1,9.8,2.2,19,6.4,27.7c0.7,1.5,1.8,2.5,3.2,3.4
			c16.9,10.4,41.4,9.1,57.4-3.1c18.8-14.3,27.5-40.2,21-63c-3.3-11.6-10.5-19.3-22.5-22c-6-1.4-12.1-1.4-18.2-0.4
			C217.5,283.8,197.1,308.6,197.2,336.8z"/>
		<path class="st1" d="M501.2,323.6c-16.9,0-33.8,0-50.7,0.1c-2.3,0-2.8-0.6-2.8-2.8c-0.1-10.9,0.2-21.8,4.4-32.1
			c7.1-17.5,18.9-30.2,37.6-34.8c21-5.2,41.5,3.5,54.2,22.4c7.7,11.4,11.3,24.1,11,37.9c-0.1,3,1,7-0.5,8.7c-1.7,2-5.8,0.6-8.9,0.6
			C530.7,323.6,515.9,323.6,501.2,323.6C501.2,323.6,501.2,323.6,501.2,323.6z M476.8,314c0.3,0.2,0.4,0.3,0.5,0.3
			c22.2,0,44.3,0,66.5,0.1c1.5,0,1.8-0.6,1.8-1.9c0-4.8-0.2-9.6-1.3-14.3c-2.6-11.3-8.6-16.6-20.1-18.2c-7-0.9-13.8,0.2-20.2,3.1
			C490.4,289.3,482,300.2,476.8,314z"/>
		<path class="st1" d="M757.3,323.6c-16.9,0-33.8-0.1-50.7,0.1c-2.4,0-2.9-0.7-3-3c-0.4-12.6,0.9-24.9,6.4-36.5
			c9.8-20.7,29.4-33.2,51-31.4c19.4,1.6,32.8,12.5,42.1,29c5.4,9.6,7.9,20,7.8,31c0,3.6,0.4,7.2-0.3,10.7c-3.6,0.1-7.2,0.2-10.7,0.2
			C785.7,323.6,771.5,323.6,757.3,323.6z M766.9,314.4c10.8,0,21.6,0,32.3,0c1.3,0,2.6,0.3,2.5-1.8c-0.2-5.2-0.3-10.4-1.6-15.5
			c-2.2-8.5-7.1-14.3-16-16.4c-6.4-1.5-12.7-1.3-18.9,0.6c-15.9,5-25.7,16.1-31.8,31.1c-0.9,2.1,0.1,2,1.6,2
			C745.7,314.3,756.3,314.4,766.9,314.4z"/>
		<path class="st0" d="M197.2,336.8c-0.1-28.2,20.3-52.9,47.3-57.4c6.1-1,12.2-0.9,18.2,0.4c12,2.7,19.2,10.5,22.5,22
			c6.5,22.8-2.2,48.7-21,63c-16,12.1-40.5,13.4-57.4,3.1c-1.4-0.9-2.5-1.9-3.2-3.4C199.4,355.7,197.1,346.5,197.2,336.8z"/>
		<path class="st0" d="M476.8,314c5.2-13.7,13.5-24.7,27.3-30.8c6.4-2.9,13.1-4.1,20.2-3.1c11.5,1.5,17.5,6.9,20.1,18.2
			c1.1,4.7,1.3,9.5,1.3,14.3c0,1.4-0.3,1.9-1.8,1.9c-22.2-0.1-44.3-0.1-66.5-0.1C477.3,314.3,477.2,314.2,476.8,314z"/>
		<path class="st0" d="M766.9,314.4c-10.6,0-21.2,0-31.8,0c-1.5,0-2.5,0.1-1.6-2c6.1-15,15.9-26.1,31.8-31.1
			c6.2-1.9,12.6-2.1,18.9-0.6c8.8,2.1,13.8,7.9,16,16.4c1.3,5.1,1.4,10.3,1.6,15.5c0.1,2.1-1.2,1.8-2.5,1.8
			C788.4,314.4,777.7,314.4,766.9,314.4z"/>
	</g>
</g>
</svg>
