<svg id="Layer_1" data-name="Layer 1" xmlns="http://www.w3.org/2000/svg" viewBox="0 0 1154.64 368.57"><defs><style>.cls-1{fill:#fdfdfd;}.cls-2{fill:#242021;}.cls-3{fill:#163e69;}</style></defs><title>QAAM</title><path class="cls-1" d="M1256.2,461.2c0,2.1-.4,2.7-2.6,2.7h-71.7a5.28,5.28,0,0,1-3.8-1.4c-5.4-4.9-10.9-9.7-16.4-14.5a4.76,4.76,0,0,1-1.9-4.1q0-76,.1-152.1c.1-13.6-5.3-13.4-14.9-11.6-14.3,2.7-23.3,14.5-23.3,29.9-.1,30.1,0,60.2,0,90.3,0,20.4-.1,40.8,0,61.2,0,1.9-.5,2.3-2.3,2.3h-72.3a4.83,4.83,0,0,1-3.5-1.4c-5.4-4.8-10.7-9.6-16.2-14.3a5.46,5.46,0,0,1-2.1-4.6V293.9a53,53,0,0,0-.2-6.9c-.7-5.9-3.1-7.8-9-7.5-17.2.8-28.9,13-28.9,30.3V434c0,9.1,0,18.2.1,27.3,0,2.1-.6,2.6-2.7,2.6-23.8-.1-47.6,0-71.4,0a5.73,5.73,0,0,1-4.3-1.7c-3.6-3.3-7.2-6.5-11.3-10.1,0,3.4-.1,6.2.1,8.9.2,2.3-.5,2.8-2.8,2.8-16.3-.1-32.6-.1-48.9-.1-7.3,0-14.6,0-21.9.1a6.13,6.13,0,0,1-4.3-1.7c-5.4-4.9-10.9-9.7-16.4-14.5a4.51,4.51,0,0,1-1.6-3.9c.1-10.3,0-20.6.1-30.9,0-2.1-.6-2.7-2.7-2.7q-32.85.15-65.7,0c-2.2,0-2.4.8-2.4,2.6.1,16,0,32,.1,48,0,2.6-.8,3.1-3.2,3.1-23.7-.1-47.4,0-71.1,0a5.28,5.28,0,0,1-3.8-1.4c-3.6-3.4-7.4-6.6-11.7-10.4,0,3.8-.1,6.8,0,9.7,0,1.6-.4,2.2-2,2.1-2.7-.1-5.4,0-8.1,0-20.9,0-41.8-.1-62.7,0a7.84,7.84,0,0,1-5.6-2.1c-5-4.7-10.2-9.3-15.4-13.8a5.08,5.08,0,0,1-2-4.3c.1-10.3,0-20.6.1-30.9,0-2.1-.7-2.6-2.7-2.6-21.9,0-43.8.1-65.7,0-2,0-2.4.6-2.4,2.5.1,16.1,0,32.2.1,48.3.1,2.2-.4,2.9-2.7,2.9-23.9-.1-47.8,0-71.7,0a4.58,4.58,0,0,1-3.4-1.3c-5.6-5.1-11.2-10-16.9-14.9-1.5-1.3-1.5-2.7-1.5-4.3V371.9c-2.4,6.5-4.6,13-7.2,19.2q-24.15,52.65-78.8,72.1c-2.4.9-3.3,2.1-3.7,4.6-2.8,18.6-8.7,36.1-20.6,51.1-12.5,15.7-29.1,24.5-48.3,29.1a140.93,140.93,0,0,1-33,3.7,4.7,4.7,0,0,1-3.5-1.2c-5-4.3-10-8.6-15.1-12.8a8.18,8.18,0,0,1-3.2-6.9q.15-35.7,0-71.4c0-2.4.7-2.9,3-3,5.8-.1,11.6-.5,16.9-3.2a10.8,10.8,0,0,0,5.6-5.9c.5-1.3.3-2-1.3-2.6-39.6-14.5-67.5-41.4-80.1-81.6-17.1-54.4-5.8-103.4,35.3-143.7,27.1-26.6,60.5-38.5,98.6-35.8,22.2,1.6,42.5,9.6,61,21.6,33.8,21.9,58,51.6,71.6,89.7,1.1,3.1,2,6.3,3.2,10.2.7-6.9,1.2-13.1,2.6-19.1,10.9-46.6,37.6-79.9,83.3-95.8,33.4-11.7,65.7-6.8,95.9,11.2,36,21.4,61,52.2,74.6,92a7.82,7.82,0,0,0,.8,1,122.49,122.49,0,0,1,4.6-20.7c14.3-43,42.1-72.7,86.2-85.4,32.8-9.4,63.8-3.2,92.5,14.6,33.2,20.5,56.6,49.2,70.4,85.7.2.5.5,1.1.9,2.2.4-5.2.6-9.8,1.2-14.3a106,106,0,0,1,88.6-91.8c30.2-4.7,57.7,2.3,81.8,21.5,1.8,1.4,2.7,1.2,4.4-.1,21.9-17.1,46.7-24.8,74.5-22.3,22.3,2,42.2,10.6,60,23.8,22.4,16.7,38.8,38,48.3,64.5a116.12,116.12,0,0,1,6.4,38.8Q1256,386.05,1256.2,461.2Z" transform="translate(-101.56 -183.23)"/><path class="cls-2" d="M378.8,371.9c-2.5,6.5-4.6,13-7.5,19.3-16.2,35.1-42.4,59.3-78.8,72.1-2.4.8-3.3,2-3.7,4.6-2.9,18.6-8.7,36.1-20.6,51.1-12.5,15.7-29.1,24.5-48.3,29.1a140.93,140.93,0,0,1-33,3.7,4.7,4.7,0,0,1-3.5-1.2c-5-4.3-10-8.6-15.1-12.8a8.18,8.18,0,0,1-3.2-6.9q.15-35.7,0-71.4c0-2.4.7-2.9,3-3,5.8-.2,11.6-.5,16.9-3.2,2.6-1.3,4.7-3,5.6-5.9.5-1.3.2-2.1-1.3-2.6-39.6-14.5-67.5-41.4-80.1-81.6-17-54.4-5.8-103.4,35.3-143.7,27.1-26.6,60.5-38.5,98.6-35.8,22.2,1.6,42.4,9.5,61,21.6,33.8,21.9,58,51.6,71.6,89.7,1.1,3.1,2,6.2,3.2,10.2.7-6.9,1.2-13.1,2.6-19.1,10.8-46.7,37.5-79.9,83.3-95.8,33.4-11.7,65.8-6.7,95.9,11.2q54.15,32.25,74.6,92a7.82,7.82,0,0,0,.8,1,113.49,113.49,0,0,1,4.6-20.7c14.3-43.1,42.1-72.8,86.2-85.4,32.8-9.4,63.8-3.2,92.5,14.6,33.1,20.5,56.6,49.2,70.4,85.7.2.5.4,1.1.9,2.2.4-5.2.6-9.8,1.2-14.3a105.77,105.77,0,0,1,88.6-91.8c30.3-4.7,57.7,2.2,81.8,21.5,1.8,1.4,2.7,1.2,4.4-.1,21.9-17.1,46.7-24.9,74.5-22.3,22.3,2,42.1,10.6,60,23.8,22.5,16.7,38.9,38.1,48.3,64.5a111.28,111.28,0,0,1,6.4,38.8c-.1,50.1,0,100.2,0,150.3,0,2-.4,2.7-2.6,2.7q-35.85-.15-71.7,0a5.44,5.44,0,0,1-3.8-1.4c-5.4-4.9-10.9-9.7-16.4-14.5a5,5,0,0,1-1.9-4.1c.1-50.7,0-101.4.1-152.1,0-13.6-5.3-13.4-14.9-11.6-14.3,2.7-23.3,14.5-23.3,29.9-.1,30.1,0,60.2,0,90.3v61.2c0,1.9-.5,2.3-2.3,2.3q-36.15-.15-72.3,0a5.18,5.18,0,0,1-3.5-1.4c-5.3-4.8-10.7-9.6-16.2-14.3a5.46,5.46,0,0,1-2.1-4.6q.15-74.85,0-149.7a53,53,0,0,0-.2-6.9c-.8-5.9-3.1-7.8-9-7.5-17.2.8-28.9,13-28.9,30.3V434.1c0,9.1-.1,18.2.1,27.3,0,2.1-.6,2.6-2.7,2.6q-35.7-.15-71.4,0a5.88,5.88,0,0,1-4.3-1.7c-3.6-3.3-7.2-6.4-11.3-10.1a85.54,85.54,0,0,0,.1,8.9c.2,2.3-.5,2.8-2.8,2.8-16.3-.1-32.6-.1-48.9-.1-7.3,0-14.6,0-21.9.1a5.88,5.88,0,0,1-4.3-1.7c-5.4-4.9-10.9-9.7-16.4-14.5a4.51,4.51,0,0,1-1.6-3.9c.1-10.3,0-20.6.1-30.9,0-2.1-.5-2.7-2.7-2.7q-32.85.15-65.7,0c-2.2,0-2.4.8-2.4,2.6,0,16,0,32,.1,48,0,2.6-.8,3.1-3.2,3.1-23.7-.1-47.4,0-71.1,0a5.44,5.44,0,0,1-3.8-1.4c-3.6-3.3-7.4-6.6-11.7-10.4,0,3.8-.1,6.7,0,9.7.1,1.6-.4,2.1-2,2.1-2.7-.1-5.4,0-8.1,0H568.3a7.3,7.3,0,0,1-5.6-2.1c-5.1-4.7-10.2-9.3-15.4-13.8a5.08,5.08,0,0,1-2-4.3c.1-10.3,0-20.6.1-30.9,0-2.1-.6-2.7-2.7-2.6q-32.85.15-65.7,0c-2.1,0-2.4.7-2.4,2.5.1,16.1,0,32.2.1,48.3,0,2.2-.4,2.9-2.7,2.9q-35.85-.15-71.7,0a4.3,4.3,0,0,1-3.4-1.3c-5.6-5-11.2-10-16.9-14.9-1.5-1.2-1.5-2.7-1.5-4.3C378.8,419.5,378.8,395.7,378.8,371.9Zm521.4-14.4h0c-.1,25.3,0,50.6-.1,75.9,0,2.2.4,3.1,2.9,3.1,17.8-.1,35.6-.2,53.4,0,2.9,0,3.5-.7,3.5-3.6q-.15-71.25-.1-142.5c0-10.6,3.3-20,10.9-27.4,11.6-11.2,25.4-13.8,40.4-8.3a36.13,36.13,0,0,1,23.3,33.7c.2,24.4.1,48.8.1,73.2v72c0,2.2.5,2.8,2.8,2.8q26.85-.15,53.7,0c2.9,0,3.4-.9,3.3-3.5-.1-12.8-.1-25.6-.1-38.4,0-35.3-.2-70.6.1-105.9.1-14.4,6.9-25.6,19.7-32.3,13-6.8,26.2-6,38.4,2,11.6,7.6,16.8,18.8,16.8,32.6q0,71.1-.1,142.2c0,2.7.7,3.3,3.3,3.3q26.7-.15,53.4,0c2.1,0,2.7-.5,2.7-2.6-.1-48.4,0-96.8-.1-145.2a92.09,92.09,0,0,0-17.3-53.6c-25-35.8-68.6-50.6-110.1-37.4a92.12,92.12,0,0,0-35,20.9c-1.3,1.3-2.3,1.6-3.6,0a11.63,11.63,0,0,0-2-1.8c-21.2-18.5-46-26.3-73.8-23.2a96.74,96.74,0,0,0-86.5,94.8C899.8,311.3,900.2,334.4,900.2,357.5ZM173.8,495.3v25.8c0,3.1.9,4,3.9,3.8,1.5-.1,3-.5,4.4-.5,9.6-.2,18.7-2.8,27.6-5.9,13.7-4.7,24.8-13.4,33.8-24.7a80.14,80.14,0,0,0,13.6-24.6,139.17,139.17,0,0,0,4.5-15.6c.8-3.8.9-7.7,1.6-11.5.3-1.7.7-3.3,2.9-3.6,6.1-.8,11.4-3.9,17-6a61,61,0,0,0,11-5.8,141.38,141.38,0,0,0,22.8-17.1c7.9-7.2,14.2-15.8,20-24.7a113.8,113.8,0,0,0,11.3-23.6c1.9-5.5,3.1-11.2,4.7-16.8a72,72,0,0,0,2.5-19.5c0-6,.1-12-.2-18.1-.7-14.4-4.9-27.8-10.3-40.9a121.72,121.72,0,0,0-10.2-18.3c-5.8-9.1-13.2-16.9-21-24.3A123.76,123.76,0,0,0,289.2,206c-7.9-4.4-16.5-7.3-25.1-9.8a107.74,107.74,0,0,0-24.7-3.8,122.77,122.77,0,0,0-30.8,2.3,101.23,101.23,0,0,0-17.1,4.9A125.69,125.69,0,0,0,158.3,219a121,121,0,0,0-27,30.1,152,152,0,0,0-8,14.2,153.59,153.59,0,0,0-5.9,14.6c-1.4,3.6-1.6,7.6-2.8,11.2-2.6,7.6-3.3,15.4-3.4,23.1-.1,5.8-.4,11.7.3,17.5a127.61,127.61,0,0,0,2.1,13.8c1.1,4.4,2.2,8.7,3.6,13a133.78,133.78,0,0,0,9.2,22.1,114.18,114.18,0,0,0,12.8,18.9A125,125,0,0,0,164.4,421a129.13,129.13,0,0,0,26.9,14.4c2.9,1.1,5.9,2.5,9,2.9s3.2,2.2,2.8,4.4c-.3,1.8-1.2,3.6-1.6,5.4-1.5,6.2-5.9,10.6-10.5,13.9-3,2.1-7.7,3-12,2.9-4.7-.1-5.1.4-5.1,5.1C173.8,478.6,173.8,487,173.8,495.3ZM388,363c0,26.1,0,48.2-.1,70.3,0,2.5.7,3.1,3.1,3.1q26.7-.15,53.4,0c2.6,0,3.4-.5,3.3-3.2-.1-15.9,0-31.8-.1-47.7,0-2,.3-2.7,2.5-2.7q50.85.15,101.7,0c2.4,0,3,.6,2.9,2.9-.1,16,0,32-.1,48,0,2.1.6,2.7,2.7,2.7q27-.15,54,0c2.3,0,2.7-.6,2.7-2.8-.1-40.9.4-81.8-.2-122.7-.6-38.5-15.8-70.5-46.1-94.8-33.3-26.6-81.9-30.6-118.7-9.5-37.8,21.6-57.6,55-60.7,98C386.9,325.4,388.3,346.2,388,363Zm482.3.7c-.3-17,.9-37.9-.4-58.7-2.2-35.8-17-65.5-45-88.2-34.2-27.8-84.7-31.6-122.3-8.6-38,23.2-57.2,57.9-58.2,101.9-.9,41.3-.2,82.6-.3,123.9,0,2,.6,2.5,2.5,2.5q27.3-.15,54.6,0c2.1,0,2.7-.5,2.6-2.6-.1-16,0-32-.1-48,0-2.3.5-3,2.9-3q50.7.15,101.4,0c2.6,0,3,.8,3,3.2-.1,15.8,0,31.6-.1,47.4,0,2.6.7,3.1,3.1,3.1q26.55-.15,53.1,0c2.8,0,3.2-.9,3.2-3.4C870.2,411.3,870.3,389.5,870.3,363.7Z" transform="translate(-101.56 -183.23)"/><path class="cls-1" d="M900.2,357.5c0-23.1-.3-46.2.1-69.3a96.89,96.89,0,0,1,86.5-94.8c27.8-3,52.6,4.8,73.8,23.2a11.63,11.63,0,0,1,2,1.8c1.3,1.6,2.2,1.2,3.6,0,10.2-9.4,21.7-16.7,35-20.9,41.5-13.2,85.1,1.6,110.1,37.4,11.2,16.1,17.2,34,17.3,53.6.1,48.4,0,96.8.1,145.2,0,2.1-.6,2.6-2.7,2.6q-26.7-.15-53.4,0c-2.6,0-3.3-.6-3.3-3.3.1-47.4,0-94.8.1-142.2,0-13.8-5.2-25-16.8-32.6-12.3-8-25.5-8.8-38.4-2s-19.6,17.9-19.7,32.3c-.3,35.3-.1,70.6-.1,105.9,0,12.8-.1,25.6.1,38.4,0,2.6-.5,3.5-3.3,3.5q-26.85-.15-53.7,0c-2.3,0-2.8-.6-2.8-2.8q.15-36,0-72c0-24.4.1-48.8-.1-73.2a36.13,36.13,0,0,0-23.3-33.7c-15-5.6-28.8-3-40.4,8.3-7.6,7.4-10.9,16.8-10.9,27.4q0,71.25.1,142.5c0,2.8-.6,3.6-3.5,3.6-17.8-.2-35.6-.1-53.4,0-2.5,0-2.9-.9-2.9-3.1q-.3-37.8-.1-75.8Z" transform="translate(-101.56 -183.23)"/><path class="cls-3" d="M173.8,495.3V470.1c0-4.7.4-5.2,5.1-5.1,4.3.1,9-.9,12-2.9,4.7-3.2,9-7.7,10.5-13.9.4-1.8,1.3-3.6,1.6-5.4.4-2.2.4-4-2.8-4.4s-6-1.7-9-2.9a136.39,136.39,0,0,1-26.9-14.4,125,125,0,0,1-25.2-23.5,114.18,114.18,0,0,1-12.8-18.9,133.78,133.78,0,0,1-9.2-22.1c-1.4-4.3-2.5-8.7-3.6-13a127.61,127.61,0,0,1-2.1-13.8c-.8-5.8-.5-11.7-.3-17.5.2-7.7.8-15.5,3.4-23.1,1.2-3.5,1.5-7.5,2.8-11.2a153.59,153.59,0,0,1,5.9-14.6,132.28,132.28,0,0,1,8-14.2,124.89,124.89,0,0,1,27-30.1,129,129,0,0,1,33.2-19.4,101.23,101.23,0,0,1,17.1-4.9,122.77,122.77,0,0,1,30.8-2.3,108.59,108.59,0,0,1,24.7,3.8c8.6,2.5,17.2,5.4,25.1,9.8a119.79,119.79,0,0,1,24.5,17.4c7.9,7.4,15.3,15.2,21,24.3,3.7,5.9,7.5,11.9,10.2,18.3,5.4,13.1,9.5,26.5,10.3,40.9.3,6,.2,12.1.2,18.1a68.71,68.71,0,0,1-2.5,19.5c-1.6,5.6-2.8,11.3-4.7,16.8A113.8,113.8,0,0,1,336.8,385c-5.8,8.9-12,17.5-20,24.7A135.75,135.75,0,0,1,294,426.8a82.72,82.72,0,0,1-11,5.8c-5.6,2.1-10.9,5.2-17,6-2.2.3-2.6,1.8-2.9,3.6-.7,3.8-.8,7.7-1.6,11.5a139.17,139.17,0,0,1-4.5,15.6,80.14,80.14,0,0,1-13.6,24.6c-9,11.3-20.1,20-33.8,24.7-8.9,3.1-18,5.7-27.6,5.9-1.5,0-2.9.5-4.4.5-3,.1-3.9-.8-3.9-3.8C173.8,512.5,173.8,503.9,173.8,495.3Zm59-111.9c14.3.8,26.9-3.7,38-12.4a71.29,71.29,0,0,0,17.4-20.8c5.8-10,8.1-20.8,8.4-32,.2-7.6-1.4-15.1-3.8-22.5a62.59,62.59,0,0,0-15.2-24.6A58.15,58.15,0,0,0,259.2,258c-7.7-3.3-15.6-5.6-23.9-5.8a55.52,55.52,0,0,0-21.9,3.7c-4.7,1.9-9.4,3.8-13.6,6.6A63.59,63.59,0,0,0,179,285.1c-1.4,2.4-3,4.8-3.7,7.3-1.1,3.7-2.1,7.6-3.1,11.4-1.7,6.6-1.4,13.1-1.3,19.6a44.33,44.33,0,0,0,2.1,13.1c2.7,8.3,6,16.4,11.9,23.2s11.8,13,19.9,17C213.6,381,222.7,384.1,232.8,383.4Z" transform="translate(-101.56 -183.23)"/><path class="cls-1" d="M388,363c.2-16.8-1.1-37.7.4-58.4,3.2-43,22.9-76.4,60.7-98,36.9-21.1,85.5-17.1,118.7,9.5,30.3,24.2,45.5,56.2,46.1,94.8.6,40.9.1,81.8.2,122.7,0,2.2-.4,2.8-2.7,2.8q-27-.15-54,0c-2.1,0-2.7-.6-2.7-2.7.1-16,0-32,.1-48,0-2.4-.6-3-2.9-2.9q-50.85.15-101.7,0c-2.2,0-2.6.7-2.5,2.7.1,15.9-.1,31.8.1,47.7,0,2.8-.8,3.2-3.3,3.2q-26.7-.15-53.4,0c-2.4,0-3.2-.5-3.1-3.1C388.1,411.2,388,389.1,388,363Zm113.2-39.4h0c14.8,0,29.6.1,44.4,0,3.1,0,7.1,1.3,8.9-.6,1.5-1.7.4-5.7.5-8.7a63.72,63.72,0,0,0-11-37.9c-12.7-18.9-33.2-27.6-54.2-22.4-18.7,4.6-30.5,17.3-37.6,34.8-4.2,10.3-4.5,21.2-4.4,32.1,0,2.2.5,2.8,2.8,2.8C467.4,323.5,484.3,323.6,501.2,323.6Z" transform="translate(-101.56 -183.23)"/><path class="cls-1" d="M870.3,363.7c0,25.7,0,47.5.1,69.3,0,2.5-.4,3.4-3.2,3.4-17.7-.2-35.4-.1-53.1,0-2.4,0-3.2-.5-3.1-3.1.1-15.8,0-31.6.1-47.4,0-2.4-.4-3.2-3-3.2q-50.7.15-101.4,0c-2.4,0-3,.7-2.9,3,.1,16,0,32,.1,48,0,2.1-.6,2.7-2.6,2.6q-27.3-.15-54.6,0c-1.9,0-2.5-.4-2.5-2.5.1-41.3-.7-82.6.3-123.9,1-44.1,20.3-78.8,58.2-101.9,37.6-22.9,88.1-19.1,122.3,8.6,28,22.7,42.8,52.4,45,88.2C871.1,325.9,870,346.8,870.3,363.7Zm-113-40.1h42.6c3.6,0,7.2-.1,10.7-.2.7-3.6.2-7.1.3-10.7a61.08,61.08,0,0,0-7.8-31c-9.3-16.5-22.7-27.4-42.1-29-21.6-1.7-41.2,10.7-51,31.4-5.5,11.6-6.7,23.9-6.4,36.5.1,2.3.5,3,3,3C723.5,323.5,740.4,323.6,757.3,323.6Z" transform="translate(-101.56 -183.23)"/><path class="cls-2" d="M232.8,383.4c-10.1.7-19.2-2.4-28.1-6.8-8.1-4-14.1-10.3-19.9-17s-9.1-14.9-11.9-23.2a44.86,44.86,0,0,1-2.1-13.1c-.2-6.5-.5-13,1.3-19.6,1-3.8,1.9-7.7,3.1-11.4.8-2.5,2.4-4.9,3.7-7.3a65.31,65.31,0,0,1,20.8-22.6,81.38,81.38,0,0,1,13.6-6.6,55.23,55.23,0,0,1,21.9-3.7c8.3.2,16.2,2.5,23.9,5.8A56.62,56.62,0,0,1,277.5,271a62.59,62.59,0,0,1,15.2,24.6c2.4,7.4,4,14.9,3.8,22.5-.3,11.2-2.6,22-8.4,32-4.7,8-10.2,15.1-17.4,20.8C259.7,379.7,247.1,384.2,232.8,383.4Zm-35.6-46.6a61.55,61.55,0,0,0,6.4,27.7,8.06,8.06,0,0,0,3.2,3.4c16.9,10.4,41.4,9.1,57.4-3.1,18.8-14.3,27.5-40.2,21-63-3.3-11.6-10.5-19.3-22.5-22a46.45,46.45,0,0,0-18.2-.4C217.5,283.8,197.1,308.6,197.2,336.8Z" transform="translate(-101.56 -183.23)"/><path class="cls-2" d="M501.2,323.6c-16.9,0-33.8,0-50.7.1-2.3,0-2.8-.6-2.8-2.8-.1-10.9.2-21.8,4.4-32.1,7.1-17.5,18.9-30.2,37.6-34.8,21-5.2,41.5,3.5,54.2,22.4a63.72,63.72,0,0,1,11,37.9c-.1,3,1,7-.5,8.7-1.7,2-5.8.6-8.9.6ZM476.8,314c.3.2.4.3.5.3,22.2,0,44.3,0,66.5.1,1.5,0,1.8-.6,1.8-1.9a62.43,62.43,0,0,0-1.3-14.3c-2.6-11.3-8.6-16.6-20.1-18.2a36.91,36.91,0,0,0-20.2,3.1C490.4,289.3,482,300.2,476.8,314Z" transform="translate(-101.56 -183.23)"/><path class="cls-2" d="M757.3,323.6c-16.9,0-33.8-.1-50.7.1-2.4,0-2.9-.7-3-3-.4-12.6.9-24.9,6.4-36.5,9.8-20.7,29.4-33.2,51-31.4,19.4,1.6,32.8,12.5,42.1,29a61.08,61.08,0,0,1,7.8,31c0,3.6.4,7.2-.3,10.7-3.6.1-7.2.2-10.7.2C785.7,323.6,771.5,323.6,757.3,323.6Zm9.6-9.2h32.3c1.3,0,2.6.3,2.5-1.8-.2-5.2-.3-10.4-1.6-15.5-2.2-8.5-7.1-14.3-16-16.4a35.65,35.65,0,0,0-18.9.6c-15.9,5-25.7,16.1-31.8,31.1-.9,2.1.1,2,1.6,2C745.7,314.3,756.3,314.4,766.9,314.4Z" transform="translate(-101.56 -183.23)"/></svg>